<?xml version="1.0" encoding="UTF-8" standalone="no"?>
<!-- Generator: Adobe Illustrator 19.1.0, SVG Export Plug-In . SVG Version: 6.00 Build 0)  -->

<svg
   xmlns:dc="http://purl.org/dc/elements/1.1/"
   xmlns:cc="http://creativecommons.org/ns#"
   xmlns:rdf="http://www.w3.org/1999/02/22-rdf-syntax-ns#"
   xmlns:svg="http://www.w3.org/2000/svg"
   xmlns="http://www.w3.org/2000/svg"
   xmlns:sodipodi="http://sodipodi.sourceforge.net/DTD/sodipodi-0.dtd"
   xmlns:inkscape="http://www.inkscape.org/namespaces/inkscape"
   version="1.1"
   id="Capa_1"
   x="0px"
   y="0px"
   viewBox="0 0 67 67"
   xml:space="preserve"
   sodipodi:docname="back-arrow.svg"
   inkscape:version="0.92.2 (5c3e80d, 2017-08-06)"
   width="67"
   height="67"><metadata
     id="metadata44"><rdf:RDF><cc:Work
         rdf:about=""><dc:format>image/svg+xml</dc:format><dc:type
           rdf:resource="http://purl.org/dc/dcmitype/StillImage" /><dc:title /></cc:Work></rdf:RDF></metadata><defs
     id="defs42" /><sodipodi:namedview
     pagecolor="#ffffff"
     bordercolor="#666666"
     borderopacity="1"
     objecttolerance="10"
     gridtolerance="10"
     guidetolerance="10"
     inkscape:pageopacity="0"
     inkscape:pageshadow="2"
     inkscape:window-width="1366"
     inkscape:window-height="705"
     id="namedview40"
     showgrid="false"
     showborder="true"
     inkscape:snap-others="true"
     inkscape:object-nodes="false"
     inkscape:snap-nodes="false"
     inkscape:snap-global="false"
     inkscape:zoom="3.5757576"
     inkscape:cx="3.049429"
     inkscape:cy="27.215987"
     inkscape:window-x="-8"
     inkscape:window-y="-8"
     inkscape:window-maximized="1"
     inkscape:current-layer="group-51svg"
     fit-margin-top="2"
     fit-margin-left="2"
     fit-margin-right="2"
     fit-margin-bottom="2" /><g
     id="group-51svg"
     transform="translate(-5.3735652,2.173081)"><path
       inkscape:connector-curvature="0"
       d="m 68.873565,53.326919 c 0,4.418 -3.582,8 -8,8 h -44 c -4.418,0 -7.9999998,-3.582 -7.9999998,-8 V 9.3269189 c 0,-5.0340727 1.8555128,-7.9999998 7.9999998,-7.9999998 h 44 c 4.418,0 8,3.582 8,7.9999998 z"
       style="fill:#e56a77;stroke:#000000;stroke-opacity:1;stroke-width:0.8;stroke-miterlimit:4;stroke-dasharray:none"
       id="path-1_46_"
       sodipodi:nodetypes="sssssssss" /><path
       inkscape:connector-curvature="0"
       d="m 60.873565,62.826919 h -44 c -5.238,0 -9.4999998,-4.262 -9.4999998,-9.5 v -44 c 0,-5.238 4.2619998,-9.5 9.4999998,-9.5 h 44 c 5.238,0 9.5,4.262 9.5,9.5 v 44 c 0,5.238 -4.262,9.5 -9.5,9.5 z m -44,-60 c -3.584,0 -6.5,2.916 -6.5,6.5 v 44 c 0,3.584 2.916,6.5 6.5,6.5 h 44 c 3.584,0 6.5,-2.916 6.5,-6.5 v -44 c 0,-3.584 -2.916,-6.5 -6.5,-6.5 z"
       id="path-2_42_"
       style="stroke:#000000;stroke-opacity:1;fill:#31919c;fill-opacity:1" /><path
       inkscape:connector-curvature="0"
       d="m 48.150143,46.075195 c -0.818158,0 -1.619182,-0.215604 -2.375943,-0.63682 L 24.596308,33.44585 c -0.665379,-0.37838 -1.079456,-1.080882 -1.086596,-1.844784 -0.007,-0.7639 0.394087,-1.474971 1.052326,-1.864775 l 21.12078,-12.469425 c 0.779605,-0.452629 1.627749,-0.688223 2.46447,-0.688223 2.631531,0 4.69192,2.197462 4.69192,5.001762 v 19.4916 c 0,2.805727 -2.058962,5.00319 -4.689065,5.00319 z M 29.929331,31.542526 47.870286,41.703116 c 0.339826,0.188475 0.685368,0.0014 0.685368,-0.631111 v -19.4916 c 0.0014,-0.631109 -0.318409,-0.84386 -0.708213,-0.615404 z"
       id="path-4_19_"
       style="stroke-width:1.42785144" /><path
       style="fill:#31919c;fill-opacity:1;stroke:#31919c;stroke-width:3.67394447;stroke-linecap:round;stroke-linejoin:round;stroke-miterlimit:4;stroke-dasharray:none;stroke-opacity:1"
       d="m 46.960079,21.80544 c -0.321507,-0.006 -0.670128,0.08832 -1.031261,0.30349 l -15.746981,9.711725 15.78035,9.331546 c 1.444533,0.82506 2.672697,-0.244871 2.672697,-1.941692 V 24.032676 c 0,-1.285961 -0.710283,-2.209099 -1.674805,-2.227236 z"
       id="path-3_24_"
       inkscape:connector-curvature="0" /></g><g
     id="g9"
     transform="translate(8.4398428,4.263012)" /><g
     id="g11"
     transform="translate(8.4398428,4.263012)" /><g
     id="g13"
     transform="translate(8.4398428,4.263012)" /><g
     id="g15"
     transform="translate(8.4398428,4.263012)" /><g
     id="g17"
     transform="translate(8.4398428,4.263012)" /><g
     id="g19"
     transform="translate(8.4398428,4.263012)" /><g
     id="g21"
     transform="translate(8.4398428,4.263012)" /><g
     id="g23"
     transform="translate(8.4398428,4.263012)" /><g
     id="g25"
     transform="translate(8.4398428,4.263012)" /><g
     id="g27"
     transform="translate(8.4398428,4.263012)" /><g
     id="g29"
     transform="translate(8.4398428,4.263012)" /><g
     id="g31"
     transform="translate(8.4398428,4.263012)" /><g
     id="g33"
     transform="translate(8.4398428,4.263012)" /><g
     id="g35"
     transform="translate(8.4398428,4.263012)" /><g
     id="g37"
     transform="translate(8.4398428,4.263012)" /></svg>