<?xml version="1.0" encoding="UTF-8" standalone="no"?>
<!-- Generator: Adobe Illustrator 19.0.0, SVG Export Plug-In . SVG Version: 6.00 Build 0)  -->

<svg
   xmlns:dc="http://purl.org/dc/elements/1.1/"
   xmlns:cc="http://creativecommons.org/ns#"
   xmlns:rdf="http://www.w3.org/1999/02/22-rdf-syntax-ns#"
   xmlns:svg="http://www.w3.org/2000/svg"
   xmlns="http://www.w3.org/2000/svg"
   xmlns:sodipodi="http://sodipodi.sourceforge.net/DTD/sodipodi-0.dtd"
   xmlns:inkscape="http://www.inkscape.org/namespaces/inkscape"
   version="1.1"
   id="Capa_1"
   x="0px"
   y="0px"
   viewBox="0 0 512.011 512.011"
   style="enable-background:new 0 0 512.011 512.011;"
   xml:space="preserve"
   sodipodi:docname="undo.svg"
   inkscape:version="0.92.2 (5c3e80d, 2017-08-06)"><metadata
     id="metadata39"><rdf:RDF><cc:Work
         rdf:about=""><dc:format>image/svg+xml</dc:format><dc:type
           rdf:resource="http://purl.org/dc/dcmitype/StillImage" /></cc:Work></rdf:RDF></metadata><defs
     id="defs37" /><sodipodi:namedview
     pagecolor="#ffffff"
     bordercolor="#666666"
     borderopacity="1"
     objecttolerance="10"
     gridtolerance="10"
     guidetolerance="10"
     inkscape:pageopacity="0"
     inkscape:pageshadow="2"
     inkscape:window-width="1366"
     inkscape:window-height="705"
     id="namedview35"
     showgrid="false"
     inkscape:zoom="0.46092761"
     inkscape:cx="-97.629213"
     inkscape:cy="256.00549"
     inkscape:window-x="-8"
     inkscape:window-y="-8"
     inkscape:window-maximized="1"
     inkscape:current-layer="Capa_1" /><path
     style="fill:#c6d0da;fill-opacity:1"
     d="M328,128.015H192v-80c0-6.144-3.52-11.744-9.056-14.432c-5.568-2.656-12.128-1.952-16.928,1.92  l-160,128C2.208,166.575,0,171.151,0,176.015s2.208,9.44,5.984,12.512l160,128c2.912,2.304,6.464,3.488,10.016,3.488  c2.368,0,4.736-0.512,6.944-1.568c5.536-2.688,9.056-8.288,9.056-14.432v-80h139.392c41.856,0,80,30.08,84.192,71.712  c4.832,47.872-32.704,88.288-79.584,88.288H208c-8.832,0-16,7.168-16,16v64c0,8.832,7.168,16,16,16h128  c102.816,0,185.472-88.864,175.136-193.76C502.08,194.863,419.84,128.015,328,128.015z"
     id="path2" /><g
     id="g4" /><g
     id="g6" /><g
     id="g8" /><g
     id="g10" /><g
     id="g12" /><g
     id="g14" /><g
     id="g16" /><g
     id="g18" /><g
     id="g20" /><g
     id="g22" /><g
     id="g24" /><g
     id="g26" /><g
     id="g28" /><g
     id="g30" /><g
     id="g32" /></svg>