<?xml version="1.0" encoding="utf-8"?>
<!-- Svg Vector Icons : http://www.onlinewebfonts.com/icon -->
<!DOCTYPE svg PUBLIC "-//W3C//DTD SVG 1.1//EN" "http://www.w3.org/Graphics/SVG/1.1/DTD/svg11.dtd">
<svg version="1.1" xmlns="http://www.w3.org/2000/svg" xmlns:xlink="http://www.w3.org/1999/xlink" x="0px" y="0px" viewBox="0 0 1000 1000" enable-background="new 0 0 1000 1000" xml:space="preserve">
<metadata> Svg Vector Icons : http://www.onlinewebfonts.com/icon </metadata>
<g><path d="M907.8,100.2l-346,380v419.7l-124.5-98.3v-322l-345-379.4H907.8 M907.8,17.9H92.2c-32.6,0-62,19.2-75.2,49c-13.2,29.8-7.5,64.5,14.4,88.6L355,511.3v290.2c0,25.2,11.5,49,31.3,64.6l124.5,98.3c14.8,11.7,32.8,17.7,51,17.7c12.2,0,24.5-2.7,35.9-8.2c28.4-13.7,46.4-42.5,46.4-74V512l324.6-356.5c21.9-24.1,27.6-58.8,14.4-88.6C969.8,37.1,940.3,17.9,907.8,17.9L907.8,17.9z"/></g>
</svg>