<?xml version="1.0" encoding="UTF-8" standalone="no"?>
<!-- Generator: Adobe Illustrator 19.0.0, SVG Export Plug-In . SVG Version: 6.00 Build 0)  -->

<svg
   xmlns:dc="http://purl.org/dc/elements/1.1/"
   xmlns:cc="http://creativecommons.org/ns#"
   xmlns:rdf="http://www.w3.org/1999/02/22-rdf-syntax-ns#"
   xmlns:svg="http://www.w3.org/2000/svg"
   xmlns="http://www.w3.org/2000/svg"
   xmlns:sodipodi="http://sodipodi.sourceforge.net/DTD/sodipodi-0.dtd"
   xmlns:inkscape="http://www.inkscape.org/namespaces/inkscape"
   version="1.1"
   id="Capa_1"
   x="0px"
   y="0px"
   viewBox="0 0 512 512"
   style="enable-background:new 0 0 512 512;"
   xml:space="preserve"
   sodipodi:docname="id-card.svg"
   inkscape:version="0.92.2 (5c3e80d, 2017-08-06)"><metadata
     id="metadata59"><rdf:RDF><cc:Work
         rdf:about=""><dc:format>image/svg+xml</dc:format><dc:type
           rdf:resource="http://purl.org/dc/dcmitype/StillImage" /><dc:title></dc:title></cc:Work></rdf:RDF></metadata><defs
     id="defs57" /><sodipodi:namedview
     pagecolor="#ffffff"
     bordercolor="#666666"
     borderopacity="1"
     objecttolerance="10"
     gridtolerance="10"
     guidetolerance="10"
     inkscape:pageopacity="0"
     inkscape:pageshadow="2"
     inkscape:window-width="1366"
     inkscape:window-height="705"
     id="namedview55"
     showgrid="false"
     showborder="false"
     inkscape:zoom="0.11523438"
     inkscape:cx="-385.98107"
     inkscape:cy="-526.89564"
     inkscape:window-x="-8"
     inkscape:window-y="-8"
     inkscape:window-maximized="1"
     inkscape:current-layer="Capa_1" /><path
     style="fill:#66C6B9;"
     d="M480,131.2H32c-18.133,0-32,13.867-32,32V480c0,18.133,13.867,32,32,32h448c18.133,0,32-13.867,32-32  V163.2C512,146.133,498.133,131.2,480,131.2z M314.667,194.133H197.333c-8.533,0-16-7.467-16-16c0-8.533,7.467-16,16-16H313.6  c8.533,0,16,7.467,16,16C330.667,186.667,323.2,194.133,314.667,194.133z"
     id="path2" /><rect
     id="SVGCleanerId_0"
     x="42.667"
     y="222.933"
     style="fill:#F3F3F3;"
     width="426.667"
     height="246.4" /><path
     style="fill:#66C6B9;"
     d="M480,131.2H32c-18.133,0-32,13.867-32,32V480c0,18.133,13.867,32,32,32h448c18.133,0,32-13.867,32-32  V163.2C512,146.133,498.133,131.2,480,131.2z M314.667,194.133H197.333c-8.533,0-16-7.467-16-16c0-8.533,7.467-16,16-16H313.6  c8.533,0,16,7.467,16,16C330.667,186.667,323.2,194.133,314.667,194.133z"
     id="path5" /><g
     id="g8"><rect
       id="SVGCleanerId_0_1_"
       x="42.667"
       y="222.933"
       style="fill:#F3F3F3;"
       width="426.667"
       height="246.4" /></g><g
     id="g14"><circle
       style="fill:#415A6B;"
       cx="154.667"
       cy="304"
       r="37.333"
       id="circle10" /><path
       style="fill:#415A6B;"
       d="M224,425.6c-1.067-37.333-32-67.2-69.333-67.2S86.4,388.267,85.333,425.6H224z"
       id="path12" /></g><g
     id="g20"><rect
       x="244.267"
       y="330.667"
       style="fill:#CED6E0;"
       width="182.4"
       height="29.867"
       id="rect16" /><rect
       x="244.267"
       y="395.733"
       style="fill:#CED6E0;"
       width="182.4"
       height="29.867"
       id="rect18" /></g><path
     style="fill:#f3705a;stroke-width:0.7586019"
     d="m 307.2,75.169047 v 92.690323 c 0,4.91055 -7.467,9.20763 -16,9.20763 h -70.4 c -8.533,0 -16,-4.29708 -16,-9.20763 V 75.169047 Z"
     id="path22"
     inkscape:connector-curvature="0" /><g
     id="g24" /><g
     id="g26" /><g
     id="g28" /><g
     id="g30" /><g
     id="g32" /><g
     id="g34" /><g
     id="g36" /><g
     id="g38" /><g
     id="g40" /><g
     id="g42" /><g
     id="g44" /><g
     id="g46" /><g
     id="g48" /><g
     id="g50" /><g
     id="g52" /></svg>